<svg xmlns="http://www.w3.org/2000/svg" viewBox="0 0 48 48"><path fill="#283593" d="M29.427 10.904c3.182 1.076 5.94 3.067 7.966 5.663l3.637-.001c-2.81-4.569-7.388-7.931-12.788-9.103L29.427 10.904zM10.586 16.595c2.01-2.585 4.743-4.572 7.899-5.659l1.143-3.44c-5.353 1.2-9.887 4.551-12.673 9.095L10.586 16.595zM40.952 26.05C40.969 26.366 41 26.679 41 27c0 3.753-1.237 7.213-3.304 10.029l1.074 3.408C42.007 36.882 44 32.175 44 27c0-1.006-.099-1.987-.243-2.954L40.952 26.05zM30.23 42.802C28.298 43.566 26.2 44 24 44c-2.257 0-4.408-.451-6.38-1.253l-2.8 2.003C17.573 46.179 20.69 47 24 47c3.252 0 6.316-.797 9.033-2.18L30.23 42.802zM10.216 36.911C8.201 34.117 7 30.7 7 27c0-.328.031-.647.049-.97l-2.805-1.992C4.099 25.007 4 25.991 4 27c0 5.097 1.932 9.739 5.082 13.275L10.216 36.911z"/><path fill="#e53935" d="M48 18.617L29.961 18.621 23.907 1.042 18.057 18.654 0.036 18.639 14.821 29.593 9.157 46.402 23.921 35.842 38.535 46.361 33.356 29.931z"/><path fill="#c62828" d="M23.907 1.042L24.018 26.557 29.961 18.621z"/><g><path fill="#c62828" d="M48 18.617L24.054 26.43 33.356 29.931z"/></g><g><path fill="#c62828" d="M38.535 46.361L24.016 26.298 23.921 35.842z"/></g><g><path fill="#c62828" d="M9.157 46.402L24.054 26.43 14.821 29.593z"/></g><g><path fill="#c62828" d="M0.036 18.639L24.018 26.443 18.057 18.654z"/></g></svg>