<svg xmlns="http://www.w3.org/2000/svg" width="48" height="48" viewBox="0 0 48 48"><path fill="#FFC107" d="M36.519,19.881c-0.772,0.774-2.026,0.774-2.8,0l-5.601-5.601c-0.774-0.773-0.774-2.027,0-2.8l2.1-2.1c2.102-2.102,4.201,2.799,8.401-2.801l2.801,2.801c-5.601,4.199-0.7,6.299-2.801,8.4L36.519,19.881z"/><path fill="#FFC107" d="M40.02 6.0009999999999994A1.98 1.98 0 1 0 40.02 9.961A1.98 1.98 0 1 0 40.02 6.0009999999999994Z"/><path fill="#BBDEFB" d="M34.17,29.23c2.263-2.262,1.226-5.775-0.699-7.7l-3.5-3.501l-3.502-3.501c-1.925-1.925-5.438-2.962-7.7-0.699c-1.4,1.399-2.8,5.601-4.901,7.701c-2.1,2.1-4.2,1.4-7,4.2c-4.201,4.201,0,8.402,0,8.402l3.499,3.5l3.5,3.5c0,0,4.202,4.201,8.402,0c2.8-2.801,2.101-4.9,4.2-7C28.569,32.031,32.771,30.631,34.17,29.23z"/><path fill="#42A5F5" d="M35.119,24.083L23.918,12.881l2.101-2.102c0.772-0.772,2.027-0.772,2.799,0l8.402,8.402c0.772,0.771,0.772,2.027,0,2.801L35.119,24.083z"/><g><path fill="#64B5F6" d="M17.972 17.199H19.972V35.199H17.972z" transform="rotate(44.98 18.971 26.198)"/><path fill="#64B5F6" d="M22.897 21.31H29.897V23.31H22.897z" transform="rotate(45.001 26.398 22.312)"/><path fill="#64B5F6" d="M20.361 23.432H25.361V25.432H20.361z" transform="rotate(44.988 22.86 24.43)"/><path fill="#64B5F6" d="M17.532 26.26H22.531V28.259H17.532z" transform="rotate(45.001 20.033 27.26)"/><path fill="#64B5F6" d="M14.704 29.088H19.703V31.088H14.704z" transform="rotate(45.001 17.205 30.088)"/><path fill="#64B5F6" d="M11.582 32.624H18.583000000000002V34.624H11.582z" transform="rotate(45.009 15.083 33.622)"/></g></svg>